<?xml version="1.0" standalone="no"?>
<!DOCTYPE svg PUBLIC "-//W3C//DTD SVG 20010904//EN"
 "http://www.w3.org/TR/2001/REC-SVG-20010904/DTD/svg10.dtd">
<svg version="1.0" xmlns="http://www.w3.org/2000/svg"
 width="300.000000pt" height="126.000000pt" viewBox="0 0 300.000000 126.000000"
 preserveAspectRatio="xMidYMid meet">
<metadata>
Created by potrace 1.10, written by Peter Selinger 2001-2011
</metadata>
<g transform="translate(0.000000,126.000000) scale(0.100000,-0.100000)"
fill="#000000" stroke="none">
<path d="M90 625 l0 -535 267 0 266 0 -6 300 c-6 275 0 356 17 249 6 -38 110
-491 122 -531 5 -16 23 -18 188 -18 l182 0 63 273 c35 149 67 286 71 302 5 17
9 -97 9 -272 l1 -303 275 0 275 0 0 535 0 535 -359 0 c-278 0 -360 -3 -363
-12 -3 -7 -29 -127 -59 -265 -47 -226 -69 -298 -69 -231 0 12 -25 129 -55 260
-30 131 -55 240 -55 243 0 3 -173 5 -385 5 l-385 0 0 -535z m740 473 c5 -13
29 -111 54 -219 25 -108 49 -207 55 -220 12 -33 35 -51 54 -43 24 9 41 63 87
279 23 110 47 206 53 213 7 9 80 12 326 10 l316 -3 0 -490 0 -490 -230 0 -230
0 -5 260 c-4 206 -8 265 -20 283 -39 59 -63 8 -136 -299 -30 -128 -57 -236
-60 -241 -9 -14 -290 -10 -301 4 -6 7 -34 114 -63 238 -69 297 -92 350 -132
300 -16 -20 -18 -44 -18 -270 0 -137 -3 -255 -6 -264 -5 -14 -34 -16 -219 -16
-185 0 -214 2 -219 16 -8 20 -8 938 0 958 5 14 45 16 345 16 l339 0 10 -22z"/>
<path d="M1890 820 l0 -160 170 0 c94 0 170 -1 170 -3 0 -2 -85 -130 -189
-285 l-189 -282 529 0 529 0 0 160 0 160 -165 0 c-91 0 -165 2 -165 4 0 3 79
129 175 282 96 152 175 278 175 280 0 2 -234 4 -520 4 l-520 0 0 -160z m952
98 c-1 -9 -61 -109 -132 -222 -71 -112 -137 -220 -147 -240 -16 -35 -16 -36 7
-61 22 -23 29 -25 159 -27 l136 -3 0 -115 0 -115 -462 -3 c-331 -1 -463 1
-463 9 0 6 42 74 94 152 196 297 216 330 216 352 0 42 -24 50 -174 55 l-141 5
-3 104 c-2 68 1 108 9 117 10 12 84 14 458 12 413 -3 446 -4 443 -20z"/>
</g>
</svg>
